<svg version="1.1" id="Layer_1" xmlns="http://www.w3.org/2000/svg" xmlns:xlink="http://www.w3.org/1999/xlink" x="0px" y="0px"
	 width="100%" viewBox="0 0 640 640" enable-background="new 0 0 640 640" xml:space="preserve">
<path fill="#000000" opacity="1.000000" stroke="none" 
	d="
M159.143875,487.841339 
	C135.368423,461.574982 119.049507,431.624817 109.778893,397.811066 
	C105.492447,382.176605 102.781219,366.221405 102.297203,350.076477 
	C101.535660,324.673767 104.308220,299.669037 112.096619,275.244202 
	C121.381729,246.125656 135.650574,219.930176 155.741684,196.929764 
	C175.010040,174.871246 197.773636,157.398849 224.081375,144.390625 
	C260.357056,126.453560 298.582489,119.444603 338.828949,122.591797 
	C386.713318,126.336250 428.735565,144.124481 464.946808,175.486893 
	C497.247894,203.462692 519.019531,238.269363 531.291687,279.193451 
	C539.709961,307.265900 541.346130,336.051788 538.681213,364.807617 
	C535.523193,398.884003 523.614258,430.454010 505.044250,459.270233 
	C494.468048,475.681915 481.962738,490.572815 467.218628,503.491455 
	C465.071899,505.372406 463.220154,507.071930 460.483246,504.221558 
	C458.324127,501.972870 457.989227,500.166595 460.496094,497.980408 
	C468.660217,490.860443 475.927307,482.912201 482.863403,474.573303 
	C498.015564,456.356689 509.776764,436.284882 518.076660,414.084412 
	C525.830750,393.343842 530.784851,371.925873 531.356812,349.892395 
	C532.376343,310.617035 524.480774,273.325104 504.996094,238.619171 
	C491.229736,214.098541 473.441376,193.198059 451.641815,175.850830 
	C424.505249,154.256561 393.701691,140.002365 359.449860,133.798477 
	C327.162079,127.950340 295.276459,129.627274 263.554321,138.467087 
	C237.305618,145.781631 213.595428,157.832214 192.268173,174.430298 
	C167.387146,193.794113 147.493835,217.479187 133.428024,245.901276 
	C124.902412,263.128540 118.667381,281.037170 114.950676,299.940063 
	C110.476311,322.696259 110.111176,345.404022 112.921371,368.384583 
	C116.690552,399.207153 127.489746,427.272064 143.952484,453.424774 
	C154.318985,469.892975 167.069107,484.265625 181.075195,497.629364 
	C182.747787,499.225311 184.973785,500.600281 182.469955,503.316071 
	C180.200165,505.777863 178.196518,506.513092 175.293030,503.956116 
	C169.655609,498.991516 164.306168,493.771698 159.143875,487.841339 
z"/>
<path fill="#000000" opacity="1.000000" stroke="none" 
	d="
M218.430908,514.520508 
	C210.671799,519.677917 202.391678,520.761047 193.720901,519.869507 
	C190.779953,519.567078 188.314835,518.104980 186.391663,515.929626 
	C183.341812,512.479797 184.755981,507.743195 189.109390,506.368286 
	C191.450745,505.628876 192.821899,505.971588 193.248535,508.836487 
	C194.164658,514.988464 198.504807,516.623474 203.936707,512.981506 
	C210.159821,508.808990 213.559753,502.419586 216.499847,495.901703 
	C221.348587,485.152496 225.134628,473.926056 230.958954,463.612274 
	C232.605423,460.696686 230.402740,459.867065 228.524918,458.724762 
	C215.269073,450.661133 206.212341,439.522919 202.794830,424.085114 
	C199.690277,410.061127 206.009811,392.968201 217.748291,384.758820 
	C220.444748,382.873047 222.785141,380.386047 226.192078,379.567322 
	C228.256577,379.071198 228.183975,377.489838 228.106735,375.619415 
	C227.562607,362.442993 224.592255,349.588776 223.061676,336.543579 
	C220.634949,315.860138 224.173782,296.165253 232.181824,277.161255 
	C234.618317,271.379272 234.013153,270.023895 227.763458,269.922882 
	C221.471848,269.821198 215.550171,271.460724 209.965347,274.190582 
	C207.939789,275.180664 205.897171,276.430237 205.124268,278.961487 
	C204.295471,281.675751 203.784470,284.394958 206.450165,286.195618 
	C208.928696,287.869843 210.303558,285.519073 211.844055,284.062012 
	C212.288559,283.641541 212.971771,283.473511 213.645782,283.140167 
	C216.195953,285.705902 215.473434,288.440125 214.334961,291.043732 
	C212.017334,296.344025 206.117004,299.105988 200.157104,297.864716 
	C195.316849,296.856628 191.113495,291.674500 190.962860,286.103363 
	C190.775940,279.189850 193.845276,274.032745 199.738739,270.356628 
	C210.760330,263.481750 222.991364,262.699493 235.387070,263.465057 
	C238.946625,263.684906 241.044830,262.714600 242.964600,260.110443 
	C254.599899,244.327225 270.431549,234.677094 289.042145,229.578705 
	C294.403992,228.109833 300.257111,228.298080 305.899200,228.049408 
	C308.488678,227.935287 309.824158,229.858017 308.227325,232.032318 
	C303.429047,238.565781 304.679840,246.192459 304.565094,253.291046 
	C304.118195,280.937103 304.315216,308.593750 304.303772,336.246460 
	C304.302155,340.167419 304.756775,343.922668 308.693939,346.190582 
	C309.836884,346.848938 310.964417,347.920410 310.421570,349.448944 
	C309.900574,350.915955 308.398285,351.100128 307.066162,351.114777 
	C300.569946,351.186371 294.069336,351.322449 287.578064,351.147430 
	C285.096588,351.080566 282.600983,349.222137 285.386292,347.125641 
	C293.353790,341.128540 291.473206,332.956024 290.161072,325.567413 
	C285.917786,301.674103 272.019653,285.010193 249.951553,275.132935 
	C244.871567,272.859222 243.188965,273.713287 240.733002,278.958405 
	C230.928787,299.897003 228.939590,321.743469 233.521469,344.218475 
	C235.192505,352.415131 239.012756,359.523956 246.620300,364.012238 
	C248.087738,364.877991 250.282974,365.676666 249.744568,367.993317 
	C249.311066,369.858429 247.262695,369.995422 245.755997,370.604065 
	C243.243149,371.619202 240.206268,371.604187 237.913422,374.952881 
	C248.462921,372.914001 258.317413,373.468048 268.206787,374.633392 
	C282.771973,376.349670 295.588623,381.484375 305.453949,392.738251 
	C310.926605,398.981232 312.386719,407.422699 309.192963,413.622314 
	C306.974670,417.928345 303.001495,419.569977 297.789948,418.371368 
	C293.217255,417.319672 291.141449,414.206085 290.868469,409.778259 
	C290.745758,407.787476 290.940613,405.717499 293.459869,404.675659 
	C293.921173,404.934814 294.557251,405.156830 295.014862,405.574402 
	C296.420380,406.856903 297.402496,409.299713 299.835602,408.086609 
	C302.107849,406.953705 301.966736,404.540466 301.897705,402.340210 
	C301.796783,399.122253 300.102264,396.718109 298.000000,394.477509 
	C291.046967,387.067017 282.015137,383.615479 272.380188,382.238434 
	C259.202515,380.355011 246.210266,380.700287 234.407745,388.517761 
	C215.844650,400.813171 212.421524,427.073425 226.748047,444.184448 
	C228.349609,446.097290 229.981369,448.054169 231.906036,449.611298 
	C234.966278,452.087189 237.784576,453.458344 242.091171,450.633759 
	C247.798233,446.890625 254.591797,446.386292 261.337341,448.343292 
	C264.909698,449.379730 266.942139,451.793823 267.543518,455.409546 
	C268.150818,459.061005 266.203491,461.392090 263.363220,463.243408 
	C258.649658,466.315857 253.370636,465.505798 248.287842,465.155121 
	C243.928635,464.854401 242.104385,465.852905 240.861923,470.624054 
	C237.871063,482.109100 236.653351,494.342590 228.994949,504.223328 
	C226.025497,508.054382 223.045822,511.851929 218.430908,514.520508 
M262.004120,251.529404 
	C257.066620,255.473282 252.657120,259.858551 249.438553,266.227875 
	C265.677643,273.495758 279.282898,283.670654 289.326202,298.286652 
	C289.963898,297.500549 290.343018,297.251465 290.344116,297.000702 
	C290.423615,278.726044 290.538300,260.451050 290.472870,242.176697 
	C290.458954,238.286148 288.126587,237.684723 284.639862,238.769043 
	C276.394043,241.333389 269.326996,245.906403 262.004120,251.529404 
M248.779861,454.893280 
	C246.102295,456.955811 246.298752,458.543304 249.762009,458.792877 
	C252.806870,459.012299 256.172180,459.972626 258.721924,457.251923 
	C259.538361,456.380768 259.108948,455.228180 258.288513,454.597626 
	C255.380402,452.362457 252.356415,453.111389 248.779861,454.893280 
z"/>
<path fill="#000000" opacity="1.000000" stroke="none" 
	d="
M356.167786,227.549500 
	C375.189575,232.441757 389.882751,243.134644 401.761902,257.924652 
	C404.121246,260.862091 407.026245,261.095428 410.234528,260.962219 
	C420.474335,260.537140 430.532471,261.240936 440.062103,265.489319 
	C449.682922,269.778320 454.309052,276.831726 453.231049,285.610352 
	C452.505707,291.517273 447.639313,295.805328 441.583862,295.873291 
	C435.633728,295.940063 429.808167,291.166779 429.182373,285.609863 
	C428.978180,283.796631 428.975403,281.927307 430.861267,280.842285 
	C431.273834,280.879852 431.719452,280.782257 431.903839,280.958252 
	C434.089508,283.044495 436.374084,285.751831 439.421326,282.702454 
	C442.340973,279.780853 440.063782,276.862976 437.975098,274.863800 
	C431.086029,268.269958 422.235840,267.472839 413.357544,267.789154 
	C409.666443,267.920685 410.854034,270.961487 411.777283,273.123810 
	C415.048431,280.785004 417.838226,288.548920 419.481659,296.785461 
	C423.222321,315.533173 422.887451,334.172028 418.573792,352.713684 
	C417.267426,358.328949 417.332458,363.926300 417.152222,369.565674 
	C417.078186,371.881683 417.444885,374.555969 414.819611,375.653717 
	C412.554443,376.600952 410.616913,375.138550 409.044891,373.604034 
	C405.695435,370.334595 401.183075,369.347046 397.181824,367.362946 
	C394.751923,366.157959 393.332306,364.115875 396.189026,362.644714 
	C408.838989,356.130280 411.172455,344.259583 412.400421,331.980652 
	C414.355133,312.434784 412.476990,293.436676 403.152557,275.652466 
	C401.163025,271.857880 399.293304,270.719543 394.957367,272.555420 
	C371.883026,282.325104 358.795654,300.015656 353.680573,323.997406 
	C352.797485,328.137878 353.381195,332.624237 353.535950,336.941895 
	C353.646881,340.037537 355.794525,341.968384 358.124573,343.731628 
	C359.150116,344.507690 360.307343,345.494019 359.855530,347.049713 
	C359.416046,348.562805 358.005737,349.016785 356.681763,349.013672 
	C350.191986,348.998383 343.696564,348.986816 337.216125,348.690643 
	C334.999512,348.589386 332.681824,346.761292 335.088715,344.844574 
	C341.731628,339.554626 340.479523,332.528229 340.436768,325.597748 
	C340.272400,298.957886 340.187378,272.317505 340.031708,245.677582 
	C340.003448,240.845291 339.582855,236.064590 337.356415,231.618622 
	C336.570862,230.049896 334.987549,228.339340 336.403564,226.588409 
	C337.752075,224.921021 340.002441,224.915848 341.983612,225.190643 
	C346.594543,225.830170 351.179321,226.657990 356.167786,227.549500 
M365.843140,283.343750 
	C373.079712,276.348175 381.159027,270.636536 390.457336,266.634094 
	C395.619690,264.411957 395.744812,263.599518 392.215027,259.076599 
	C386.400177,251.625778 379.033020,245.954697 370.842865,241.402893 
	C365.826141,238.614746 360.606232,236.102280 354.025909,235.629913 
	C354.025909,256.039520 354.025909,276.061951 354.025909,296.084381 
	C354.369751,296.191223 354.713562,296.298035 355.057404,296.404877 
	C358.485413,292.220367 361.913391,288.035858 365.843140,283.343750 
z"/>
<path fill="#000000" opacity="1.000000" stroke="none" 
	d="
M426.761566,498.275146 
	C429.656219,504.192932 432.710785,509.518433 438.182495,512.946838 
	C444.044800,516.619995 447.681580,515.137756 448.807129,508.481537 
	C449.174652,506.308167 450.148682,505.588654 452.196930,506.128296 
	C454.394257,506.707184 456.225403,507.710663 456.885468,510.111786 
	C457.501923,512.354431 457.306854,514.415039 455.545776,516.107422 
	C453.185638,518.375549 450.421722,519.632324 447.099579,519.950073 
	C430.132721,521.572937 413.918335,510.940979 407.648468,494.475830 
	C404.603851,486.480316 403.379333,478.062286 401.099396,469.897980 
	C399.972260,465.861694 398.152283,464.997345 394.458405,465.173981 
	C389.519653,465.410126 384.507202,466.038177 379.766083,463.584534 
	C376.316864,461.799561 374.074249,459.206299 374.379730,455.365112 
	C374.693298,451.422028 377.522919,449.540955 381.263519,448.466858 
	C388.071625,446.511841 394.713593,446.971710 400.470734,450.801208 
	C404.784149,453.670349 407.787048,452.306366 410.548157,449.411530 
	C424.239532,435.057007 428.410980,422.157074 420.455841,403.077484 
	C416.507233,393.607300 408.589539,387.134338 398.923309,384.164795 
	C382.223389,379.034454 365.717377,380.067505 350.380463,389.236664 
	C346.267242,391.695648 342.480865,394.815125 340.943848,399.783936 
	C340.072998,402.599213 339.333008,405.601379 342.079895,407.572754 
	C344.972992,409.648987 345.778015,405.806976 347.689850,404.960327 
	C347.983734,404.830231 348.327789,404.813507 348.857269,404.699371 
	C351.900177,406.921356 351.669434,409.992340 350.586731,413.085144 
	C349.003052,417.609009 345.225616,418.677032 340.958801,418.627350 
	C337.119568,418.582611 334.108643,416.935883 332.789856,413.227692 
	C330.120728,405.722504 331.254364,398.841919 336.592743,392.745422 
	C345.714142,382.328674 357.713257,377.175720 370.910858,374.975800 
	C380.568878,373.365936 390.421814,372.953217 400.262421,374.363037 
	C418.265961,376.942230 435.283417,389.237915 438.852234,407.169678 
	C442.668793,426.346313 435.440338,441.688019 420.645325,453.836731 
	C419.489349,454.785950 418.238800,455.621857 417.015778,456.487213 
	C410.055908,461.411896 410.013184,461.430908 413.825836,468.727112 
	C418.761749,478.172760 422.078827,488.318695 426.761566,498.275146 
M394.674194,456.188324 
	C392.227051,453.544220 389.195374,452.743958 385.725708,453.384735 
	C384.493988,453.612213 383.587830,454.285431 383.415802,455.594818 
	C383.272705,456.684235 383.810150,457.736969 384.752808,458.007233 
	C388.256287,459.011841 391.918335,460.619659 394.674194,456.188324 
z"/>
<path fill="#000000" opacity="1.000000" stroke="none" 
	d="
M328.477051,202.649048 
	C326.639160,214.782867 327.286560,226.635391 327.572479,238.415070 
	C328.037354,257.570709 327.661987,276.721100 327.938629,295.871490 
	C328.000580,300.160187 328.030548,304.230804 332.372314,306.736908 
	C333.354156,307.303650 334.229309,308.369537 333.763367,309.678192 
	C333.227448,311.183228 331.799377,311.336548 330.439667,311.336151 
	C324.111877,311.334229 317.783997,311.309052 311.456329,311.268646 
	C310.275391,311.261139 309.037323,311.147217 308.414948,309.950562 
	C307.608582,308.400116 308.687347,307.189789 309.737915,306.582275 
	C314.345184,303.918060 314.112732,299.577911 314.101105,295.192169 
	C314.047699,275.036804 314.051239,254.881271 314.023712,234.725800 
	C314.010529,225.081055 313.741211,215.429062 314.042419,205.794556 
	C314.200958,200.723923 312.932953,198.042984 307.350098,197.777939 
	C299.923798,197.425354 292.561890,195.152802 285.077179,197.248367 
	C282.315582,198.021545 279.059357,198.745300 279.639648,202.479858 
	C280.125244,205.605072 282.275116,207.202621 285.875000,206.489777 
	C288.981079,205.874695 289.387115,207.944305 288.267059,210.144913 
	C286.301575,214.006500 283.390656,216.375092 278.610413,215.344131 
	C274.276886,214.409531 271.997986,211.821823 271.561005,207.476456 
	C270.900665,200.910355 273.925598,196.240326 279.287537,192.956100 
	C288.090088,187.564514 297.963013,185.986511 308.019775,185.857559 
	C315.666443,185.759491 323.380371,186.320221 330.721436,188.754852 
	C337.315765,190.941803 344.136169,191.171844 350.926056,191.617081 
	C353.354614,191.776337 355.882721,191.141342 358.296478,190.575119 
	C360.255615,190.115555 362.212921,189.200912 362.490143,186.846756 
	C362.749237,184.646515 360.803619,184.304932 359.326294,183.586273 
	C356.089661,182.011826 357.573029,180.038696 359.204346,178.511826 
	C361.716736,176.160278 364.758240,176.238159 367.517853,177.975082 
	C370.498352,179.851074 371.542297,182.865036 370.685364,186.237289 
	C369.750641,189.915649 367.442719,192.684311 364.319275,194.899368 
	C356.346497,200.553375 347.535248,202.650330 337.859375,201.764450 
	C334.810333,201.485275 331.624237,200.317047 328.477051,202.649048 
z"/>
<path fill="#000000" opacity="1.000000" stroke="none" 
	d="
M330.331665,424.358643 
	C331.527618,426.382538 331.911957,428.088623 330.508545,429.771271 
	C323.697144,437.937988 320.293488,447.992310 315.295197,457.163910 
	C312.309143,462.643188 308.751038,467.588074 302.421600,469.701599 
	C298.969635,470.854309 295.641693,470.749969 292.163239,469.650513 
	C288.633087,468.534698 286.752838,466.245850 286.936310,462.726654 
	C287.089813,459.781982 288.404297,457.224701 291.821381,456.649811 
	C295.433777,456.042023 298.022156,457.226776 299.231201,460.875366 
	C299.424896,461.459900 299.825287,461.976013 300.111145,462.489685 
	C302.958893,462.533112 303.984253,460.659973 305.101715,458.763947 
	C310.361816,449.838654 313.445374,440.099548 313.586548,429.871094 
	C313.981842,401.232056 313.772278,372.584961 313.890869,343.941406 
	C313.906921,340.057831 313.209900,336.737488 309.826111,334.345886 
	C308.784332,333.609558 307.620544,332.564636 308.097504,331.028625 
	C308.629822,329.314301 310.259705,328.999878 311.748230,328.973816 
	C318.047699,328.863525 324.326874,330.207764 330.659760,329.133575 
	C331.879364,328.926697 333.413055,329.418610 333.831940,330.996307 
	C334.174164,332.285370 333.424683,333.468658 332.449524,333.981842 
	C326.931946,336.885559 327.350891,341.903931 327.378387,346.986603 
	C327.469330,363.794739 327.330505,380.604156 327.422150,397.412292 
	C327.470947,406.359131 326.761597,415.413513 330.331665,424.358643 
z"/>
<path fill="#000000" opacity="1.000000" stroke="none" 
	d="
M396.502350,491.643372 
	C399.108582,496.760223 398.683441,501.013794 394.176544,504.300323 
	C391.104950,506.540192 393.200104,508.314392 394.562103,510.065796 
	C396.622467,512.715271 399.764069,514.743591 399.362274,519.375488 
	C391.677216,519.698669 391.069611,511.530579 386.082825,508.523499 
	C384.757507,511.089111 385.818237,513.620422 385.319611,515.966003 
	C384.943787,517.734009 384.615417,519.336609 382.526062,519.451721 
	C380.249573,519.577209 379.787750,517.795166 379.783478,516.087219 
	C379.763123,507.954102 379.804108,499.820007 379.933350,491.687988 
	C379.970520,489.350281 381.166351,487.973724 383.774536,488.325348 
	C388.051208,488.901825 392.876160,487.138153 396.502350,491.643372 
M390.535004,493.725098 
	C388.682068,493.348663 386.414062,492.201721 385.620453,494.940765 
	C385.151581,496.558929 385.090118,498.738831 386.537445,500.001221 
	C387.914459,501.202301 389.728363,500.648560 391.045746,499.546143 
	C393.055756,497.864197 393.125427,495.966736 390.535004,493.725098 
z"/>
<path fill="#000000" opacity="1.000000" stroke="none" 
	d="
M266.838135,508.959259 
	C269.287140,503.452087 271.553345,498.278412 273.918762,493.150452 
	C274.524353,491.837524 275.039001,490.149261 276.824219,490.036285 
	C278.914093,489.904114 279.555603,491.751282 280.216858,493.205414 
	C283.450562,500.316528 286.631805,507.452789 289.709869,514.632324 
	C290.301910,516.013245 291.691406,517.938110 289.537872,519.019409 
	C287.290802,520.147705 285.870605,518.573669 284.765808,516.683655 
	C283.329437,514.226379 283.185516,510.675629 279.318329,510.223694 
	C274.928619,509.710663 271.438873,510.582581 269.860870,515.382935 
	C269.187103,517.432495 268.590393,520.681030 265.319641,519.050903 
	C262.409302,517.600403 264.228729,515.007629 264.990662,512.916992 
	C265.443970,511.673065 266.117615,510.509460 266.838135,508.959259 
z"/>
<path fill="#000000" opacity="1.000000" stroke="none" 
	d="
M331.773773,494.362610 
	C334.869263,501.410309 337.863892,508.086884 340.710388,514.826050 
	C341.356659,516.356140 342.903259,518.529785 340.453918,519.573608 
	C338.217560,520.526672 336.811981,518.678772 335.934296,516.725159 
	C334.540741,513.623291 334.000244,509.986877 329.161499,509.996918 
	C325.026276,510.005493 322.076385,510.709534 321.043579,515.356689 
	C320.567261,517.499695 319.339233,520.395935 316.367157,519.135376 
	C313.590240,517.957581 315.146240,515.341736 315.967499,513.481995 
	C318.853821,506.946045 321.898773,500.479919 324.911285,494.000214 
	C325.662109,492.385254 326.070038,490.098572 328.262482,490.121063 
	C330.415375,490.143188 330.845062,492.394684 331.773773,494.362610 
z"/>
<path fill="#000000" opacity="1.000000" stroke="none" 
	d="
M347.349182,512.271301 
	C350.900421,504.482574 353.786987,496.767334 357.994781,489.949432 
	C360.692383,490.357269 361.343384,491.985748 362.004913,493.463104 
	C365.188049,500.572052 368.304626,507.710815 371.435333,514.843140 
	C372.149170,516.469482 372.575958,518.276733 370.616119,519.166382 
	C368.347076,520.196411 367.321075,518.409912 366.553345,516.656189 
	C365.117279,513.375732 364.319946,510.115540 359.351166,509.794525 
	C355.607819,509.552734 353.688660,510.337280 352.481842,513.609314 
	C352.194580,514.388306 351.785645,515.124695 351.528168,515.911926 
	C350.798248,518.143860 349.654114,520.298706 346.986542,519.147095 
	C344.315765,517.994080 346.064514,515.760742 346.570770,513.963257 
	C346.704376,513.488831 346.973328,513.052612 347.349182,512.271301 
z"/>
<path fill="#000000" opacity="1.000000" stroke="none" 
	d="
M253.642776,519.227051 
	C248.782181,519.896423 249.172791,516.390076 249.064331,513.762146 
	C248.845016,508.448303 248.955292,503.118286 249.024338,497.796143 
	C249.062622,494.844757 248.175858,493.019653 244.795868,493.078979 
	C243.176071,493.107391 241.046753,492.869263 241.248001,490.582123 
	C241.448990,488.297852 243.658493,488.667053 245.224594,488.638977 
	C249.880676,488.555481 254.539734,488.577271 259.196625,488.637146 
	C260.659424,488.655945 262.459869,488.585815 262.532074,490.707306 
	C262.590424,492.422516 261.015961,493.020203 259.769287,492.996277 
	C255.037231,492.905518 255.011765,496.006256 255.074829,499.365265 
	C255.162262,504.021912 255.171692,508.680328 255.181183,513.338013 
	C255.185196,515.306702 255.561264,517.373169 253.642776,519.227051 
z"/>
<path fill="#000000" opacity="1.000000" stroke="none" 
	d="
M295.367126,515.417847 
	C296.122101,514.751343 296.795074,514.022156 297.224121,514.144958 
	C303.700226,515.999329 303.481018,511.507477 303.572906,507.452271 
	C303.685791,502.473206 303.614349,497.490204 303.686615,492.509888 
	C303.712921,490.696899 303.587677,488.559052 306.251770,488.522827 
	C308.499359,488.492218 308.948303,490.400909 308.968811,492.022461 
	C309.059021,499.156891 309.270508,506.313538 308.804596,513.420593 
	C308.591125,516.677063 307.100220,520.151794 302.673920,519.875549 
	C299.621124,519.685059 295.599945,520.868164 295.367126,515.417847 
z"/>
</svg>